<?xml version="1.0" encoding="UTF-8"?>
<!DOCTYPE svg PUBLIC "-//W3C//DTD SVG 1.1//EN" "http://www.w3.org/Graphics/SVG/1.1/DTD/svg11.dtd">
<!-- Creator: CorelDRAW X7 -->
<svg xmlns="http://www.w3.org/2000/svg" xml:space="preserve" width="210mm" height="297mm" version="1.1" style="shape-rendering:geometricPrecision; text-rendering:geometricPrecision; image-rendering:optimizeQuality; fill-rule:evenodd; clip-rule:evenodd"
viewBox="0 0 21000 29700"
 xmlns:xlink="http://www.w3.org/1999/xlink">
 <defs>
  <style type="text/css">
   <![CDATA[
    .fil0 {fill:#313131}
   ]]>
  </style>
 </defs>
 <g id="Camada_x0020_1">
  <metadata id="CorelCorpID_0Corel-Layer"/>
  <path class="fil0" d="M6308 4859l0 537c0,255 75,-24 75,214 0,84 -75,79 -75,429 0,199 90,16 109,374l105 914c23,365 72,114 106,431 17,157 -19,304 19,463 49,202 90,65 93,444 3,313 -59,708 27,992 82,270 36,384 85,666 48,283 76,209 97,654 9,181 -4,97 44,225 125,329 308,524 535,752 370,374 1218,643 1343,910 7,15 23,63 29,79 39,96 -1,10 46,115l278 741c4,13 9,27 13,40l485 1340c75,234 212,654 355,824 144,170 174,76 202,335 52,481 -19,1068 -5,1561 11,379 111,250 111,426l0 6598 -1288 0c-197,0 -7,66 -326,104l-406 77c-13,4 -26,9 -39,13l-240 83c-333,160 -323,515 -681,660 -615,250 -454,345 -454,1209 0,145 26,148 54,269l688 223c557,174 829,114 1066,168 227,51 18,91 231,91l4721 0c138,0 214,-107 482,-108 118,0 190,11 305,-16l1198 -358c74,-318 54,-684 54,-1020 0,-357 -203,-358 -455,-457 -318,-127 -274,-237 -350,-562l-1129 -266c-416,-9 -168,-100 -584,-113 -242,-8 -510,3 -755,3 -74,-110 -161,-139 -161,-268l0 -6330c0,-79 111,-205 108,-697l-5 -1293c5,-257 -30,-183 94,-334 144,-175 340,-221 340,-520l0 -2038c0,-173 -108,32 -108,-698 0,-293 415,-271 624,-342l361 -121c519,-167 1136,-635 1320,-987l163 -427c0,-712 128,-1106 -214,-1288 236,-447 28,-476 28,-751 0,-153 79,-104 79,-322 0,-252 -99,-232 -168,-368 -95,-185 -22,-309 -53,-537 -32,-229 -81,-133 -100,-437l-94 -496c-34,-172 6,-336 -29,-508 -46,-230 -78,-122 -92,-498 -16,-408 -72,-172 -106,-484 -31,-284 27,-274 -56,-535 -106,-336 47,-1041 -685,-1889 -182,-210 -94,-359 -359,-500 -210,-111 -321,-76 -545,-152l-203 -66c-12,-5 -26,-10 -39,-15 -119,-45 29,4 -116,-48 -192,-69 -1203,-37 -1542,-14l-718 140c-183,51 27,15 -203,65l-665 194c-848,280 -2106,969 -2600,1745 -85,134 -138,185 -234,356 -43,75 -191,336 -191,399z"/>
 </g>
</svg>
