<?xml version="1.0" encoding="UTF-8"?>
<!DOCTYPE svg PUBLIC "-//W3C//DTD SVG 1.1//EN" "http://www.w3.org/Graphics/SVG/1.1/DTD/svg11.dtd">
<!-- Creator: CorelDRAW X7 -->
<svg xmlns="http://www.w3.org/2000/svg" xml:space="preserve" width="210mm" height="297mm" version="1.1" style="shape-rendering:geometricPrecision; text-rendering:geometricPrecision; image-rendering:optimizeQuality; fill-rule:evenodd; clip-rule:evenodd"
viewBox="0 0 21000 29700"
 xmlns:xlink="http://www.w3.org/1999/xlink">
 <defs>
  <style type="text/css">
   <![CDATA[
    .fil0 {fill:#303030}
   ]]>
  </style>
 </defs>
 <g id="Camada_x0020_1">
  <metadata id="CorelCorpID_0Corel-Layer"/>
  <path class="fil0" d="M2798 1688c0,302 -82,574 176,782 254,204 44,234 312,339 97,38 54,7 153,76 453,317 422,-10 1186,615 70,58 57,55 129,101 693,448 1506,1141 2212,1619 94,63 155,111 243,178 409,309 425,127 618,301 97,88 146,131 251,210 170,127 97,61 295,126 104,34 208,120 287,173 186,125 354,240 526,393 170,152 799,730 1033,746 95,7 179,30 283,121 265,235 689,346 935,598 54,56 58,59 122,108 170,129 377,243 516,403l1243 1209c199,200 380,377 525,624 83,143 99,141 209,251 145,144 257,327 382,499 65,91 118,181 179,281l353 528c241,362 497,717 692,1108 59,117 82,206 143,317 117,214 240,365 329,590 211,540 487,1009 656,1566 124,408 217,666 280,1099 102,692 -42,1286 -440,1855 -269,384 -411,496 -791,779l-213 132c-7,4 -16,11 -23,15l-45 31c-7,5 -17,11 -24,15 -7,5 -16,11 -23,15 -8,4 -17,10 -25,14 -451,239 -940,310 -1406,509l-80 35c-51,19 -20,10 -88,26 -148,35 -226,54 -370,91l-1164 176c-166,12 -273,0 -437,23 -743,107 -2229,107 -3011,131 -192,5 -212,38 -418,41 -310,4 -598,-9 -855,26 -261,36 -373,-25 -629,60 -99,34 -78,27 -202,29 -414,6 -1441,269 -1826,395 -272,90 -1180,576 -1313,718 -348,370 -660,725 -817,1213 -45,141 -80,149 -118,342 -17,86 -30,285 -48,412 -54,393 -61,840 -13,1243l435 1826c190,550 399,684 726,1074 358,425 1005,437 1555,437l0 -153c-374,0 -762,-31 -1034,-154 -200,-90 -382,-190 -533,-348 -5,-5 -13,-14 -19,-19 -5,-6 -12,-15 -17,-21 -34,-43 -32,-51 -61,-92 -251,-354 -206,-204 -417,-656 -218,-466 -277,-1019 -371,-1544 -34,-185 -34,-80 -64,-205 -39,-166 -38,-940 -24,-1033 57,-400 113,-915 334,-1277 193,-315 437,-684 738,-908l761 -465c109,-74 179,-78 308,-114 1190,-330 606,-209 1750,-357 305,-39 794,-7 1017,-55 186,-40 46,-72 505,-69 414,2 679,-39 1073,-39 532,0 1123,98 1664,17 213,-33 419,-2 633,-19l1671 -206c221,-36 338,-69 542,-108 208,-40 319,-59 527,-125l308 -113c139,-76 774,-250 1069,-425 83,-49 122,-57 190,-116l532 -426c136,-137 155,-212 268,-345l386 -572c49,-89 73,-142 107,-238 27,-75 45,-147 72,-235 73,-236 55,-326 82,-569 31,-288 42,-255 -26,-522 -63,-250 -65,-602 -125,-833 -164,-639 -464,-1236 -736,-1830 -77,-167 -182,-241 -253,-398l-1825 -2926c-91,-113 -44,-99 -134,-210 -199,-244 -421,-401 -600,-665 -264,-388 -723,-680 -948,-929 -257,-285 -699,-695 -1029,-925l-377 -274c-7,-4 -16,-11 -22,-16 -83,-62 38,30 -43,-34 -246,-193 -689,-351 -876,-542l-856 -753c-121,-108 -247,-187 -360,-291l-478 -479c-142,-125 -102,-235 -260,-354 -485,-364 -418,-462 -418,-462 -47,-112 -269,-250 -380,-348 -65,-58 -94,-103 -148,-159 -5,-6 -13,-14 -18,-19 -313,-316 -704,-547 -1000,-878l-1536 -1375c-220,-210 -104,-126 -215,-399 -70,-172 -171,-240 -280,-371 -176,-213 -94,-157 -382,-269 -636,-245 -823,-132 -1168,351 -58,82 -109,145 -109,275z"/>
 </g>
</svg>
