<?xml version="1.0" encoding="UTF-8"?>
<!DOCTYPE svg PUBLIC "-//W3C//DTD SVG 1.1//EN" "http://www.w3.org/Graphics/SVG/1.1/DTD/svg11.dtd">
<!-- Creator: CorelDRAW X7 -->
<svg xmlns="http://www.w3.org/2000/svg" xml:space="preserve" width="210mm" height="297mm" version="1.1" style="shape-rendering:geometricPrecision; text-rendering:geometricPrecision; image-rendering:optimizeQuality; fill-rule:evenodd; clip-rule:evenodd"
viewBox="0 0 21000 29700"
 xmlns:xlink="http://www.w3.org/1999/xlink">
 <defs>
  <style type="text/css">
   <![CDATA[
    .fil1 {fill:#303030}
    .fil0 {fill:white}
   ]]>
  </style>
 </defs>
 <g id="Camada_x0020_1">
  <metadata id="CorelCorpID_0Corel-Layer"/>
  <g id="_2655069633024">
   <polygon class="fil0" points="58,29731 20778,29731 20778,-29 58,-29 "/>
   <path class="fil1" d="M2141 2081c0,591 -5,361 272,697 79,96 53,157 151,218 390,242 842,319 876,337l2263 1654c306,222 587,437 887,658 269,197 300,34 537,254 171,158 236,207 495,294 629,211 1239,1148 1843,1290 161,38 345,183 491,263 188,103 299,207 475,312 628,372 1145,957 1681,1445 159,144 228,256 393,400 297,260 406,512 702,839 229,252 495,740 640,946l323 467c206,309 438,594 597,945 167,369 366,651 531,1052 292,712 738,1493 838,2287 107,838 36,1432 -446,2104l-602 605c-6,5 -15,12 -21,16l-171 124c-92,68 -168,106 -266,149l-843 337c-81,24 -46,19 -123,51 -46,19 -138,44 -169,53 -412,119 -827,237 -1250,308 -473,80 -967,90 -1429,161 -230,35 -495,-3 -720,31 -418,63 -1624,55 -2243,111 -490,44 -1017,-16 -1495,53 -200,29 -509,21 -711,84 -245,76 -646,132 -945,232 -86,29 -184,53 -286,87 -328,110 -522,211 -807,360 -83,43 -171,105 -265,153 -459,237 -905,758 -1089,1241 -398,1047 -275,1871 -69,2945 40,208 92,411 158,632 86,285 189,571 337,835l348 442c461,467 1210,693 1850,482l1517 -329c151,-19 271,-5 423,-29 395,-64 773,-191 1175,-215l4532 -482c772,0 766,-74 1731,42 244,30 478,14 750,80 113,27 238,45 375,76 270,62 776,307 957,477 171,161 177,381 559,381l2523 0c319,0 566,-306 566,-640l0 -3692c0,-626 -516,-696 -1018,-694 -577,1 -1155,1 -1732,-1 -586,-2 -888,203 -929,809 -49,721 0,2790 0,3615 -139,-60 -260,-128 -395,-183 -799,-324 -608,-180 -1317,-378 -263,-73 -1751,-154 -2106,-154 -233,0 -357,35 -528,39 -235,5 -244,-63 -543,-18 -516,78 -1738,110 -2179,270 -293,106 -627,84 -922,132l-203 61c-78,30 4,10 -113,38l-633 121c-333,44 -654,115 -969,198l-449 116c-357,77 -629,167 -993,212 -390,49 -551,204 -1086,20 -307,-105 -607,-273 -808,-543 -139,-186 -188,-168 -305,-408 -129,-264 -337,-716 -364,-1029 -20,-240 -65,-642 -153,-870 -87,-228 -36,-399 -36,-637 0,-393 -104,42 47,-933 29,-191 100,-344 155,-522 76,-244 94,-253 229,-448 532,-773 474,-573 1055,-983 139,-98 278,-188 431,-242 341,-122 711,-262 1078,-327l1148 -114c126,-10 156,-35 301,-39 109,-3 230,8 339,-1 212,-19 369,-39 641,-38l641 -41c636,-36 1347,103 1970,12 214,-32 443,7 657,-22 577,-79 1180,-131 1735,-236 168,-32 327,-82 539,-117 260,-42 1003,-270 1231,-405 360,-214 230,-3 1038,-620 286,-218 485,-507 661,-803l29 -46c276,-423 390,-957 390,-1459 0,-145 -59,-178 -77,-375 -56,-637 -280,-1340 -560,-1891 -119,-235 -195,-466 -313,-667 -72,-122 -134,-172 -180,-268 -161,-326 -290,-674 -475,-993 -300,-514 -665,-946 -960,-1455 -110,-190 -192,-239 -313,-400l-1019 -1205c-119,-102 -142,-151 -245,-245l-1542 -1355c-102,-86 -161,-148 -277,-218l-573 -363c-454,-265 -554,-433 -957,-741l-1152 -1032c-102,-137 -25,-147 -201,-293 -825,-686 59,-101 -972,-983 -198,-168 -307,-274 -522,-458l-1008 -914c-320,-284 -801,-602 -1034,-926 -153,-212 -36,-237 -360,-619 -220,-260 -247,-265 -604,-369 -565,-165 -1036,249 -1036,815z"/>
   <path class="fil0" d="M18008 25372c-1522,207 -1235,2490 276,2314 599,-70 1099,-604 1018,-1304 -66,-579 -619,-1102 -1294,-1010z"/>
   <path class="fil1" d="M17987 25798c-1011,243 -613,1674 325,1467 977,-215 636,-1697 -325,-1467z"/>
   <path class="fil0" d="M17998 23507c-996,252 -592,1664 345,1416 329,-88 622,-449 516,-885 -81,-336 -444,-636 -861,-531z"/>
   <path class="fil0" d="M18015 26249c-368,183 -111,752 288,557 342,-167 94,-746 -288,-557z"/>
   <path class="fil1" d="M18012 23950c-303,152 -141,694 265,537 345,-133 130,-735 -265,-537z"/>
  </g>
 </g>
</svg>
