<?xml version="1.0" encoding="UTF-8"?>
<!DOCTYPE svg PUBLIC "-//W3C//DTD SVG 1.1//EN" "http://www.w3.org/Graphics/SVG/1.1/DTD/svg11.dtd">
<!-- Creator: CorelDRAW X7 -->
<svg xmlns="http://www.w3.org/2000/svg" xml:space="preserve" width="210mm" height="297mm" version="1.1" style="shape-rendering:geometricPrecision; text-rendering:geometricPrecision; image-rendering:optimizeQuality; fill-rule:evenodd; clip-rule:evenodd"
viewBox="0 0 21000 29700"
 xmlns:xlink="http://www.w3.org/1999/xlink">
 <defs>
  <style type="text/css">
   <![CDATA[
    .fil0 {fill:#303030}
   ]]>
  </style>
 </defs>
 <g id="Camada_x0020_1">
  <metadata id="CorelCorpID_0Corel-Layer"/>
  <path class="fil0" d="M4208 920c0,324 -87,615 188,837 272,219 47,251 334,363 103,41 58,8 164,82 484,339 451,-12 1268,658 75,61 62,58 138,107 742,479 1612,1221 2367,1732 100,68 166,119 260,191 437,330 454,136 661,322 104,94 156,140 268,224 182,137 104,65 316,135 111,37 222,129 306,185 200,134 380,257 564,420 182,163 854,781 1105,799 101,7 191,32 302,129 284,251 737,370 1000,640 59,60 62,63 131,115 182,138 404,260 552,432l1329 1293c214,214 407,404 562,668 90,152 107,151 224,268 156,154 275,350 408,534 70,97 126,193 192,300l377 565c258,388 533,767 741,1185 63,126 87,221 153,340 125,229 257,390 352,631 226,577 521,1079 702,1675 133,437 232,713 300,1176 108,740 -46,1376 -471,1984 -288,411 -440,530 -847,833l-227 142c-8,4 -18,11 -25,16l-49 33c-7,5 -17,12 -24,16 -8,5 -18,11 -26,16 -8,4 -18,10 -26,15 -483,255 -1006,331 -1504,545l-85 37c-56,20 -22,11 -95,28 -158,37 -241,57 -395,97l-1246 188c-178,13 -292,0 -467,25 -795,114 -2385,115 -3221,140 -206,6 -227,41 -448,44 -332,4 -640,-10 -914,28 -280,38 -399,-27 -673,64 -107,36 -84,29 -216,31 -443,6 -1541,287 -1954,423 -291,96 -1262,616 -1404,767 -373,396 -706,776 -874,1299 -48,150 -86,159 -127,365 -18,92 -32,305 -51,440 -58,422 -65,900 -13,1331l465 1953c203,588 426,732 776,1149 383,455 1075,467 1664,467l0 -164c-400,0 -816,-33 -1107,-164 -213,-96 -408,-203 -570,-372 -6,-6 -14,-15 -20,-21 -5,-6 -13,-16 -18,-22 -36,-46 -35,-55 -66,-99 -268,-378 -220,-218 -446,-701 -233,-498 -295,-1090 -397,-1652 -36,-197 -36,-86 -68,-219 -42,-177 -40,-1006 -26,-1106 62,-427 121,-979 357,-1365 207,-338 469,-732 790,-972l815 -497c116,-80 191,-84 329,-122 1272,-353 648,-224 1872,-382 326,-42 849,-8 1088,-59 198,-43 49,-77 540,-74 443,2 726,-41 1148,-41 569,0 1201,105 1780,17 228,-34 448,-1 677,-19l1788 -220c236,-40 362,-75 580,-117 222,-42 341,-62 563,-133l330 -121c148,-81 828,-268 1144,-455 88,-52 130,-60 203,-124l569 -456c146,-146 166,-226 287,-368l413 -612c52,-96 77,-153 114,-255 29,-80 48,-157 77,-251 78,-253 59,-350 87,-609 34,-308 46,-273 -27,-559 -68,-267 -70,-644 -133,-891 -176,-684 -497,-1322 -788,-1958 -82,-178 -195,-257 -271,-426l-1952 -3129c-98,-121 -47,-107 -144,-225 -213,-261 -450,-429 -642,-711 -282,-416 -773,-728 -1013,-994 -275,-305 -749,-744 -1101,-990l-404 -293c-7,-5 -17,-12 -24,-17 -88,-67 42,32 -45,-36 -263,-207 -738,-376 -937,-580l-916 -806c-130,-116 -264,-200 -385,-311l-511 -513c-152,-133 -109,-251 -278,-378 -519,-390 -448,-494 -448,-495 -50,-120 -288,-267 -406,-372 -70,-61 -101,-109 -158,-170 -6,-6 -14,-15 -20,-21 -334,-337 -753,-584 -1070,-938l-1643 -1472c-235,-224 -111,-134 -230,-426 -75,-184 -183,-257 -299,-397 -189,-228 -101,-168 -409,-287 -680,-263 -881,-142 -1250,375 -62,87 -116,155 -116,293z"/>
 </g>
</svg>
